<?xml version="1.0" standalone="no"?>
<!DOCTYPE svg PUBLIC "-//W3C//DTD SVG 20010904//EN"
 "http://www.w3.org/TR/2001/REC-SVG-20010904/DTD/svg10.dtd">
<svg version="1.0" xmlns="http://www.w3.org/2000/svg"
 width="250.000000pt" height="375.000000pt" viewBox="0 0 250.000000 375.000000"
 preserveAspectRatio="xMidYMid meet">

<g transform="translate(0.000000,375.000000) scale(0.100000,-0.100000)"
fill="#000000" stroke="none">
<path d="M0 1875 l0 -1875 1250 0 1250 0 0 1875 0 1875 -1250 0 -1250 0 0
-1875z m1233 1760 c27 -8 74 -29 105 -47 70 -39 207 -175 257 -253 79 -123
180 -383 220 -565 2 -8 15 -62 28 -119 22 -91 25 -125 23 -265 -1 -133 -5
-174 -23 -236 -12 -41 -24 -86 -26 -100 -3 -14 -10 -45 -17 -70 -7 -25 -14
-60 -16 -79 -3 -19 -7 -37 -9 -41 -3 -4 -7 -29 -10 -56 -3 -27 -10 -65 -16
-85 -5 -20 -11 -49 -13 -65 -2 -16 -8 -54 -14 -84 -23 -114 -35 -240 -38 -395
-2 -88 -9 -227 -15 -310 -6 -82 -13 -179 -15 -215 -1 -36 -5 -78 -8 -95 -3
-16 -8 -52 -11 -80 -15 -134 -78 -254 -168 -323 -81 -60 -120 -75 -211 -76
-138 -2 -199 14 -264 69 -37 31 -78 105 -87 157 -3 18 -10 51 -15 73 -11 52
-11 483 1 555 15 91 24 237 24 380 0 138 -11 325 -19 338 -3 5 -7 37 -11 73
-3 35 -10 87 -15 114 -6 28 -12 60 -14 71 -7 35 -34 111 -92 257 -64 159 -80
234 -91 413 -14 235 -8 437 16 547 5 23 12 66 15 95 3 30 8 57 11 61 2 4 7 23
10 42 8 47 68 166 105 212 42 50 103 84 181 101 85 19 163 19 222 1z"/>
</g>
</svg>
